VT323-Regular.ufo
<glyph name="A" format="1">
  <advance width="400"/>
  <unicode hex="0041"/>
  <outline>
    <component base="_part.pixel"/>
    <component base="_part.pixel" yOffset="80"/>
    <component base="_part.pixel" xOffset="30" yOffset="240"/>
    <component base="_part.pixel" xOffset="50" yOffset="320"/>
    <component base="_part.pixeldbl" xOffset="30" yOffset="160"/>
    <component base="_part.pixeldbl" xOffset="80" yOffset="400"/>
    <component base="_part.pixel" xOffset="190" yOffset="320"/>
    <component base="_part.pixel" xOffset="210" yOffset="240"/>
    <component base="_part.pixeldbl" xOffset="160" yOffset="160"/>
    <component base="_part.pixel" xOffset="240"/>
    <component base="_part.pixel" xOffset="240" yOffset="80"/>
    <component base="_part.pixeldbl" xOffset="100" yOffset="480"/>
    <contour>
      <point x="340" y="10" type="move" name="ogonek"/>
    </contour>
    <contour>
      <point x="200" y="0" type="move" name="bottom"/>
    </contour>
    <contour>
      <point x="200" y="560" type="move" name="top"/>
    </contour>
  </outline>
</glyph>
<glyph name="B" format="1">
  <advance width="400"/>
  <unicode hex="0042"/>
  <outline>
    <component base="_part.pixel" yOffset="80"/>
    <component base="_part.pixel" yOffset="160"/>
    <component base="_part.pixeldbl" yOffset="240"/>
    <component base="_part.pixel" yOffset="320"/>
    <component base="_part.pixel" yOffset="400"/>
    <component base="_part.pixeldbl" xOffset="160" yOffset="240"/>
    <component base="_part.pixeldbl" yOffset="480"/>
    <component base="_part.pixeldbl" xOffset="160" yOffset="480"/>
    <component base="_part.pixeldbl"/>
    <component base="_part.pixeldbl" xOffset="160"/>
    <component base="_part.pixel" xOffset="240" yOffset="80"/>
    <component base="_part.pixel" xOffset="240" yOffset="160"/>
    <component base="_part.pixel" xOffset="240" yOffset="320"/>
    <component base="_part.pixel" xOffset="240" yOffset="400"/>
    <contour>
      <point x="200" y="560" type="move" name="top"/>
    </contour>
    <contour>
      <point x="200" y="0" type="move" name="bottom"/>
    </contour>
  </outline>
</glyph>
<glyph name="E" format="1">
  <advance width="400"/>
  <unicode hex="0045"/>
  <outline>
    <component base="_part.pixeldbl" xOffset="40"/>
    <component base="_part.pixel" xOffset="40" yOffset="80"/>
    <component base="_part.pixel" xOffset="40" yOffset="160"/>
    <component base="_part.pixeldbl" xOffset="40" yOffset="240"/>
    <component base="_part.pixel" xOffset="40" yOffset="320"/>
    <component base="_part.pixel" xOffset="40" yOffset="400"/>
    <component base="_part.pixeldbl" xOffset="40" yOffset="480"/>
    <component base="_part.pixeldbl" xOffset="200" yOffset="480"/>
    <component base="_part.pixeldbl" xOffset="200" yOffset="240"/>
    <component base="_part.pixeldbl" xOffset="200"/>
    <contour>
      <point x="300" y="10" type="move" name="ogonek"/>
    </contour>
    <contour>
      <point x="200" y="560" type="move" name="top"/>
    </contour>
    <contour>
      <point x="40" y="560" type="move" name="topleft"/>
    </contour>
    <contour>
      <point x="200" y="0" type="move" name="bottom"/>
    </contour>
  </outline>
</glyph>
<glyph name="G" format="1">
  <advance width="400"/>
  <unicode hex="0047"/>
  <outline>
    <component base="_part.pixel" yOffset="160"/>
    <component base="_part.pixel" yOffset="320"/>
    <component base="_part.pixel" xOffset="40" yOffset="400"/>
    <component base="_part.pixeldbl" xOffset="80" yOffset="480"/>
    <component base="_part.pixel" yOffset="240"/>
    <component base="_part.pixel" xOffset="40" yOffset="80"/>
    <component base="_part.pixel" xOffset="240" yOffset="400"/>
    <component base="_part.pixel" xOffset="240" yOffset="80"/>
    <component base="_part.pixel" xOffset="200" yOffset="480"/>
    <component base="_part.pixeldbl" xOffset="80"/>
    <component base="_part.pixel" xOffset="200"/>
    <component base="_part.pixel" xOffset="240" yOffset="160"/>
    <component base="_part.pixeldbl" xOffset="180" yOffset="240"/>
    <contour>
      <point x="220" y="560" type="move" name="top"/>
    </contour>
    <contour>
      <point x="220" y="0" type="move" name="bottom"/>
    </contour>
  </outline>
</glyph>
<glyph name="H" format="1">
  <advance width="400"/>
  <unicode hex="0048"/>
  <outline>
    <component base="_part.pixel" yOffset="80"/>
    <component base="_part.pixel" yOffset="160"/>
    <component base="_part.pixeldbl" yOffset="240"/>
    <component base="_part.pixel" yOffset="320"/>
    <component base="_part.pixel" yOffset="400"/>
    <component base="_part.pixel"/>
    <component base="_part.pixel" yOffset="480"/>
    <component base="_part.pixel" xOffset="240" yOffset="80"/>
    <component base="_part.pixel" xOffset="240" yOffset="160"/>
    <component base="_part.pixeldbl" xOffset="160" yOffset="240"/>
    <component base="_part.pixel" xOffset="240" yOffset="320"/>
    <component base="_part.pixel" xOffset="240" yOffset="400"/>
    <component base="_part.pixel" xOffset="240"/>
    <component base="_part.pixel" xOffset="240" yOffset="480"/>
    <contour>
      <point x="200" y="0" type="move" name="bottom"/>
    </contour>
    <contour>
      <point x="200" y="560" type="move" name="top"/>
    </contour>
    <contour>
      <point x="40" y="560" type="move" name="topleft"/>
    </contour>
    <contour>
      <point x="200" y="280" type="move" name="center"/>
    </contour>
  </outline>
</glyph>
<glyph name="I" format="1">
  <advance width="400"/>
  <unicode hex="0049"/>
  <outline>
    <component base="_part.pixel" xOffset="120" yOffset="240"/>
    <component base="_part.pixel" xOffset="120" yOffset="320"/>
    <component base="_part.pixel" xOffset="120" yOffset="400"/>
    <component base="_part.pixeldbl" xOffset="60" yOffset="480"/>
    <component base="_part.pixeldbl" xOffset="160" yOffset="480"/>
    <component base="_part.pixeldbl" xOffset="60"/>
    <component base="_part.pixeldbl" xOffset="160"/>
    <component base="_part.pixel" xOffset="120" yOffset="80"/>
    <component base="_part.pixel" xOffset="120" yOffset="160"/>
    <contour>
      <point x="230" y="10" type="move" name="ogonek"/>
    </contour>
    <contour>
      <point x="200" y="560" type="move" name="top"/>
    </contour>
    <contour>
      <point x="40" y="560" type="move" name="topleft"/>
    </contour>
    <contour>
      <point x="200" y="0" type="move" name="bottom"/>
    </contour>
  </outline>
</glyph>
<glyph name="L" format="1">
  <advance width="400"/>
  <unicode hex="004C"/>
  <outline>
    <component base="_part.pixeldbl" xOffset="40"/>
    <component base="_part.pixel" xOffset="40" yOffset="80"/>
    <component base="_part.pixel" xOffset="40" yOffset="160"/>
    <component base="_part.pixel" xOffset="40" yOffset="320"/>
    <component base="_part.pixel" xOffset="40" yOffset="400"/>
    <component base="_part.pixeldbl" xOffset="200"/>
    <component base="_part.pixel" xOffset="40" yOffset="240"/>
    <component base="_part.pixel" xOffset="40" yOffset="480"/>
    <contour>
      <point x="220" y="0" type="move" name="bottom"/>
    </contour>
    <contour>
      <point x="200" y="560" type="move" name="top"/>
    </contour>
    <contour>
      <point x="280" y="560" type="move" name="topright"/>
    </contour>
    <contour>
      <point x="200" y="320" type="move" name="center"/>
    </contour>
  </outline>
</glyph>
<glyph name="M" format="1">
  <advance width="400"/>
  <unicode hex="004D"/>
  <outline>
    <component base="_part.pixel" yOffset="320"/>
    <component base="_part.pixel" xOffset="240" yOffset="320"/>
    <component base="_part.pixel" xOffset="110" yOffset="320"/>
    <component base="_part.pixel" yOffset="240"/>
    <component base="_part.pixel" xOffset="240" yOffset="240"/>
    <component base="_part.pixel" xOffset="130" yOffset="80"/>
    <component base="_part.pixeldbl" xOffset="110" yOffset="240"/>
    <component base="_part.pixeldbl" yOffset="480"/>
    <component base="_part.pixeldbl" xOffset="220" yOffset="480"/>
    <component base="_part.pixel" xOffset="175" yOffset="320"/>
    <component base="_part.pixel" xOffset="130" yOffset="160"/>
    <component base="_part.pixel" yOffset="160"/>
    <component base="_part.pixel" xOffset="240" yOffset="160"/>
    <component base="_part.pixel" yOffset="80"/>
    <component base="_part.pixel" xOffset="240" yOffset="80"/>
    <component base="_part.pixel"/>
    <component base="_part.pixel" xOffset="240"/>
    <component base="_part.pixeldbl" yOffset="400"/>
    <component base="_part.pixeldbl" xOffset="190" yOffset="400"/>
    <contour>
      <point x="200" y="560" type="move" name="top"/>
    </contour>
    <contour>
      <point x="200" y="0" type="move" name="bottom"/>
    </contour>
  </outline>
</glyph>
<glyph name="O" format="1">
  <advance width="400"/>
  <unicode hex="004F"/>
  <outline>
    <component base="_part.pixel" xOffset="30" yOffset="80"/>
    <component base="_part.pixel" yOffset="160"/>
    <component base="_part.pixel" xOffset="30" yOffset="400"/>
    <component base="_part.pixel" xOffset="210" yOffset="80"/>
    <component base="_part.pixel" xOffset="210" yOffset="400"/>
    <component base="_part.pixeldbl" xOffset="80"/>
    <component base="_part.pixeldbl" xOffset="80" yOffset="480"/>
    <component base="_part.pixel" xOffset="240" yOffset="160"/>
    <component base="_part.pixel" yOffset="240"/>
    <component base="_part.pixel" xOffset="240" yOffset="240"/>
    <component base="_part.pixel" yOffset="320"/>
    <component base="_part.pixel" xOffset="240" yOffset="320"/>
    <contour>
      <point x="200" y="0" type="move" name="bottom"/>
    </contour>
    <contour>
      <point x="230" y="10" type="move" name="ogonek"/>
    </contour>
    <contour>
      <point x="200" y="560" type="move" name="top"/>
    </contour>
    <contour>
      <point x="280" y="560" type="move" name="topright"/>
    </contour>
    <contour>
      <point x="40" y="560" type="move" name="topleft"/>
    </contour>
    <contour>
      <point x="200" y="280" type="move" name="center"/>
    </contour>
  </outline>
</glyph>
<glyph name="Q" format="1">
  <advance width="400"/>
  <unicode hex="0051"/>
  <outline>
    <component base="_part.pixel" xOffset="30" yOffset="80"/>
    <component base="_part.pixel" yOffset="160"/>
    <component base="_part.pixel" xOffset="30" yOffset="400"/>
    <component base="_part.pixel" xOffset="210" yOffset="400"/>
    <component base="_part.pixeldbl" xOffset="80"/>
    <component base="_part.pixeldbl" xOffset="80" yOffset="480"/>
    <component base="_part.pixel" xOffset="240" yOffset="160"/>
    <component base="_part.pixel" yOffset="240"/>
    <component base="_part.pixel" xOffset="240" yOffset="240"/>
    <component base="_part.pixel" yOffset="320"/>
    <component base="_part.pixel" xOffset="240" yOffset="320"/>
    <component base="_part.pixel" xOffset="210" yOffset="80"/>
    <component base="_part.pixel" xOffset="200" yOffset="-80"/>
    <component base="_part.pixel" xOffset="240" yOffset="-160"/>
    <contour>
      <point x="200" y="560" type="move" name="top"/>
    </contour>
    <contour>
      <point x="200" y="0" type="move" name="bottom"/>
    </contour>
  </outline>
</glyph>
<glyph name="V" format="1">
  <advance width="400"/>
  <unicode hex="0056"/>
  <outline>
    <component base="_part.pixeldbl" xOffset="120"/>
    <component base="_part.pixeldbl" xOffset="80" yOffset="80"/>
    <component base="_part.pixeldbl" xOffset="60" yOffset="160"/>
    <component base="_part.pixeldbl" xOffset="180" yOffset="160"/>
    <component base="_part.pixeldbl" xOffset="210" yOffset="240"/>
    <component base="_part.pixeldbl" xOffset="30" yOffset="240"/>
    <component base="_part.pixeldbl" yOffset="320"/>
    <component base="_part.pixeldbl" xOffset="240" yOffset="320"/>
    <component base="_part.pixeldbl" yOffset="400"/>
    <component base="_part.pixeldbl" xOffset="240" yOffset="400"/>
    <component base="_part.pixeldbl" yOffset="480"/>
    <component base="_part.pixeldbl" xOffset="240" yOffset="480"/>
    <contour>
      <point x="200" y="560" type="move" name="top"/>
    </contour>
    <contour>
      <point x="200" y="0" type="move" name="bottom"/>
    </contour>
  </outline>
</glyph>
<glyph name="X" format="1">
  <advance width="400"/>
  <unicode hex="0058"/>
  <outline>
    <component base="_part.pixeldbl" xOffset="100" yOffset="240"/>
    <component base="_part.pixeldbl" xOffset="190" yOffset="320"/>
    <component base="_part.pixeldbl" xOffset="70" yOffset="320"/>
    <component base="_part.pixeldbl" xOffset="30" yOffset="400"/>
    <component base="_part.pixeldbl" xOffset="210" yOffset="400"/>
    <component base="_part.pixeldbl" xOffset="190" yOffset="160"/>
    <component base="_part.pixeldbl" xOffset="70" yOffset="160"/>
    <component base="_part.pixeldbl" xOffset="30" yOffset="80"/>
    <component base="_part.pixeldbl" xOffset="210" yOffset="80"/>
    <component base="_part.pixeldbl" yOffset="480"/>
    <component base="_part.pixeldbl"/>
    <component base="_part.pixeldbl" xOffset="240"/>
    <component base="_part.pixeldbl" xOffset="240" yOffset="480"/>
    <contour>
      <point x="200" y="560" type="move" name="top"/>
    </contour>
    <contour>
      <point x="200" y="0" type="move" name="bottom"/>
    </contour>
  </outline>
</glyph>
<glyph name="Y" format="1">
  <advance width="400"/>
  <unicode hex="0059"/>
  <outline>
    <component base="_part.pixel" yOffset="400"/>
    <component base="_part.pixel" yOffset="480"/>
    <component base="_part.pixel" xOffset="40" yOffset="320"/>
    <component base="_part.pixeldbl" xOffset="80" yOffset="240"/>
    <component base="_part.pixel" xOffset="200" yOffset="320"/>
    <component base="_part.pixel" xOffset="240" yOffset="400"/>
    <component base="_part.pixel" xOffset="240" yOffset="480"/>
    <component base="_part.pixel" xOffset="120" yOffset="80"/>
    <component base="_part.pixel" xOffset="120" yOffset="160"/>
    <component base="_part.pixel" xOffset="120"/>
    <contour>
      <point x="200" y="560" type="move" name="top"/>
    </contour>
    <contour>
      <point x="200" y="0" type="move" name="bottom"/>
    </contour>
    <contour>
      <point x="40" y="560" type="move" name="topleft"/>
    </contour>
  </outline>
</glyph>
<glyph name="a" format="1">
  <advance width="400"/>
  <unicode hex="0061"/>
  <outline>
    <component base="_part.pixel" yOffset="80"/>
    <component base="_part.pixel" xOffset="240"/>
    <component base="_part.pixel" xOffset="200" yOffset="80"/>
    <component base="_part.pixel" xOffset="200" yOffset="160"/>
    <component base="_part.pixel" xOffset="200" yOffset="240"/>
    <component base="_part.pixel" xOffset="160" yOffset="320"/>
    <component base="_part.pixeldbl" xOffset="60" yOffset="320"/>
    <component base="_part.pixeldbl" xOffset="40" yOffset="160"/>
    <component base="_part.pixeldbl" xOffset="40"/>
    <contour>
      <point x="340" y="10" type="move" name="ogonek"/>
    </contour>
    <contour>
      <point x="200" y="0" type="move" name="bottom"/>
    </contour>
    <contour>
      <point x="200" y="400" type="move" name="top"/>
    </contour>
  </outline>
</glyph>
<glyph name="f" format="1">
  <advance width="400"/>
  <unicode hex="0066"/>
  <outline>
    <component base="_part.pixeldbl" xOffset="40"/>
    <component base="_part.pixel" xOffset="80" yOffset="80"/>
    <component base="_part.pixel" xOffset="80" yOffset="160"/>
    <component base="_part.pixel" xOffset="80" yOffset="240"/>
    <component base="_part.pixel" xOffset="80" yOffset="400"/>
    <component base="_part.pixeldbl" xOffset="40" yOffset="320"/>
    <component base="_part.pixeldbl" xOffset="160" yOffset="320"/>
    <component base="_part.pixeldbl" xOffset="120" yOffset="480"/>
    <component base="_part.pixel" xOffset="160"/>
    <contour>
      <point x="200" y="400" type="move" name="top"/>
    </contour>
    <contour>
      <point x="200" y="0" type="move" name="bottom"/>
    </contour>
  </outline>
</glyph>
<glyph name="i" format="1">
  <advance width="400"/>
  <unicode hex="0069"/>
  <outline>
    <component base="_part.pixeldbl" xOffset="40"/>
    <component base="_part.pixel" xOffset="120" yOffset="80"/>
    <component base="_part.pixel" xOffset="120" yOffset="160"/>
    <component base="_part.pixel" xOffset="120" yOffset="240"/>
    <component base="_part.pixel" xOffset="120" yOffset="480"/>
    <component base="_part.pixeldbl" xOffset="60" yOffset="320"/>
    <component base="_part.pixeldbl" xOffset="160"/>
    <contour>
      <point x="200" y="0" type="move" name="bottom"/>
    </contour>
  </outline>
</glyph>
<glyph name="k" format="1">
  <advance width="400"/>
  <unicode hex="006B"/>
  <outline>
    <component base="_part.pixel" yOffset="80"/>
    <component base="_part.pixel"/>
    <component base="_part.pixel" yOffset="160"/>
    <component base="_part.pixel" yOffset="240"/>
    <component base="_part.pixel" yOffset="320"/>
    <component base="_part.pixel" yOffset="400"/>
    <component base="_part.pixel" yOffset="480"/>
    <component base="_part.pixeldbl" xOffset="80" yOffset="160"/>
    <component base="_part.pixel" xOffset="140" yOffset="240"/>
    <component base="_part.pixeldbl" xOffset="180" yOffset="320"/>
    <component base="_part.pixeldbl" xOffset="180"/>
    <component base="_part.pixel" xOffset="140" yOffset="80"/>
    <contour>
      <point x="200" y="400" type="move" name="top"/>
    </contour>
    <contour>
      <point x="200" y="0" type="move" name="bottom"/>
    </contour>
  </outline>
</glyph>
<glyph name="m" format="1">
  <advance width="400"/>
  <unicode hex="006D"/>
  <outline>
    <component base="_part.pixel" yOffset="80"/>
    <component base="_part.pixel"/>
    <component base="_part.pixel" yOffset="160"/>
    <component base="_part.pixel" yOffset="240"/>
    <component base="_part.pixel" yOffset="320"/>
    <component base="_part.pixel" xOffset="80" yOffset="320"/>
    <component base="_part.pixeldbl" xOffset="190" yOffset="320"/>
    <component base="_part.pixel" xOffset="240" yOffset="240"/>
    <component base="_part.pixel" xOffset="240" yOffset="160"/>
    <component base="_part.pixel" xOffset="240" yOffset="80"/>
    <component base="_part.pixel" xOffset="240"/>
    <component base="_part.pixel" xOffset="130" yOffset="240"/>
    <component base="_part.pixel" xOffset="130" yOffset="160"/>
    <component base="_part.pixel" xOffset="130" yOffset="80"/>
    <component base="_part.pixel" xOffset="130"/>
    <contour>
      <point x="200" y="400" type="move" name="top"/>
    </contour>
    <contour>
      <point x="200" y="0" type="move" name="bottom"/>
    </contour>
  </outline>
</glyph>
<glyph name="p" format="1">
  <advance width="400"/>
  <unicode hex="0070"/>
  <outline>
    <component base="_part.pixel" yOffset="80"/>
    <component base="_part.pixel" yOffset="160"/>
    <component base="_part.pixel" yOffset="320"/>
    <component base="_part.pixeldbl" yOffset="240"/>
    <component base="_part.pixel" yOffset="-160"/>
    <component base="_part.pixel" yOffset="-80"/>
    <component base="_part.pixeldbl" xOffset="120" yOffset="320"/>
    <component base="_part.pixel" xOffset="200" yOffset="240"/>
    <component base="_part.pixel" xOffset="240" yOffset="160"/>
    <component base="_part.pixel" xOffset="200" yOffset="80"/>
    <component base="_part.pixeldbl" xOffset="80"/>
    <component base="_part.pixel"/>
    <contour>
      <point x="200" y="400" type="move" name="top"/>
    </contour>
    <contour>
      <point x="200" y="0" type="move" name="bottom"/>
    </contour>
  </outline>
</glyph>
<glyph name="q" format="1">
  <advance width="400"/>
  <unicode hex="0071"/>
  <outline>
    <component base="_part.pixel" xOffset="40" yOffset="80"/>
    <component base="_part.pixel" yOffset="160"/>
    <component base="_part.pixel" xOffset="40" yOffset="240"/>
    <component base="_part.pixeldbl" xOffset="200" yOffset="80"/>
    <component base="_part.pixel" xOffset="240" yOffset="320"/>
    <component base="_part.pixeldbl" xOffset="80"/>
    <component base="_part.pixeldbl" xOffset="80" yOffset="320"/>
    <component base="_part.pixel" xOffset="240" yOffset="160"/>
    <component base="_part.pixel" xOffset="240"/>
    <component base="_part.pixel" xOffset="240" yOffset="-160"/>
    <component base="_part.pixel" xOffset="240" yOffset="-80"/>
    <component base="_part.pixel" xOffset="240" yOffset="240"/>
    <contour>
      <point x="200" y="400" type="move" name="top"/>
    </contour>
    <contour>
      <point x="200" y="0" type="move" name="bottom"/>
    </contour>
  </outline>
</glyph>
<glyph name="r" format="1">
  <advance width="400"/>
  <unicode hex="0072"/>
  <outline>
    <component base="_part.pixeldbl"/>
    <component base="_part.pixel" xOffset="60" yOffset="80"/>
    <component base="_part.pixel" xOffset="60" yOffset="160"/>
    <component base="_part.pixeldbl" yOffset="320"/>
    <component base="_part.pixeldbl" xOffset="100"/>
    <component base="_part.pixeldbl" xOffset="140" yOffset="320"/>
    <component base="_part.pixel" xOffset="240" yOffset="240"/>
    <component base="_part.pixeldbl" xOffset="60" yOffset="240"/>
    <contour>
      <point x="200" y="400" type="move" name="top"/>
    </contour>
    <contour>
      <point x="140" y="0" type="move" name="bottom"/>
    </contour>
  </outline>
</glyph>
<glyph name="x" format="1">
  <advance width="400"/>
  <unicode hex="0078"/>
  <outline>
    <component base="_part.pixeldbl" xOffset="100" yOffset="160"/>
    <component base="_part.pixeldbl" xOffset="190" yOffset="240"/>
    <component base="_part.pixeldbl" xOffset="60" yOffset="240"/>
    <component base="_part.pixeldbl" xOffset="20" yOffset="320"/>
    <component base="_part.pixeldbl" xOffset="220" yOffset="320"/>
    <component base="_part.pixeldbl" xOffset="190" yOffset="80"/>
    <component base="_part.pixeldbl" xOffset="60" yOffset="80"/>
    <component base="_part.pixeldbl" xOffset="20"/>
    <component base="_part.pixeldbl" xOffset="220"/>
    <contour>
      <point x="200" y="400" type="move" name="top"/>
    </contour>
    <contour>
      <point x="200" y="0" type="move" name="bottom"/>
    </contour>
  </outline>
</glyph>
<glyph name="y" format="1">
  <advance width="400"/>
  <unicode hex="0079"/>
  <outline>
    <component base="_part.pixeldbl" xOffset="110"/>
    <component base="_part.pixeldbl" xOffset="160" yOffset="80"/>
    <component base="_part.pixeldbl" xOffset="50" yOffset="160"/>
    <component base="_part.pixel" xOffset="180" yOffset="160"/>
    <component base="_part.pixeldbl" xOffset="210" yOffset="240"/>
    <component base="_part.pixeldbl" xOffset="20" yOffset="240"/>
    <component base="_part.pixeldbl" xOffset="-10" yOffset="320"/>
    <component base="_part.pixeldbl" xOffset="240" yOffset="320"/>
    <component base="_part.pixel" xOffset="70" yOffset="80"/>
    <component base="_part.pixel" xOffset="110" yOffset="-80"/>
    <component base="_part.pixeldbl" xOffset="30" yOffset="-160"/>
    <contour>
      <point x="200" y="400" type="move" name="top"/>
    </contour>
    <contour>
      <point x="320" y="0" type="move" name="bottom"/>
    </contour>
  </outline>
</glyph>
<glyph name="z" format="1">
  <advance width="400"/>
  <unicode hex="007A"/>
  <outline>
    <component base="_part.pixel" xOffset="20" yOffset="80"/>
    <component base="_part.pixeldbl" xOffset="20"/>
    <component base="_part.pixeldbl" xOffset="180"/>
    <component base="_part.pixel" xOffset="100" yOffset="160"/>
    <component base="_part.pixel" xOffset="180" yOffset="240"/>
    <component base="_part.pixeldbl" xOffset="20" yOffset="320"/>
    <component base="_part.pixeldbl" xOffset="180" yOffset="320"/>
    <contour>
      <point x="200" y="400" type="move" name="top"/>
    </contour>
    <contour>
      <point x="200" y="0" type="move" name="bottom"/>
    </contour>
  </outline>
</glyph>
<glyph name="ae" format="1">
  <advance width="400"/>
  <unicode hex="00E6"/>
  <outline>
    <component base="_part.pixeldbl" xOffset="40"/>
    <component base="_part.pixel" yOffset="80"/>
    <component base="_part.pixeldbl" xOffset="60" yOffset="320"/>
    <component base="_part.pixeldbl" xOffset="200" yOffset="320"/>
    <component base="_part.pixeldbl" xOffset="200"/>
    <component base="_part.pixeldbl" xOffset="40" yOffset="160"/>
    <component base="_part.pixel" xOffset="140" yOffset="80"/>
    <component base="_part.pixel" xOffset="140" yOffset="240"/>
    <component base="_part.pixel" xOffset="140" yOffset="160"/>
    <component base="_part.pixeldbl" xOffset="220" yOffset="160"/>
    <component base="_part.pixel" xOffset="280" yOffset="240"/>
    <contour>
      <point x="200" y="400" type="move" name="top"/>
    </contour>
    <contour>
      <point x="200" y="0" type="move" name="bottom"/>
    </contour>
  </outline>
</glyph>
<glyph name="idotless" format="1">
  <advance width="400"/>
  <unicode hex="0131"/>
  <outline>
    <component base="_part.pixeldbl" xOffset="40"/>
    <component base="_part.pixel" xOffset="120" yOffset="80"/>
    <component base="_part.pixel" xOffset="120" yOffset="160"/>
    <component base="_part.pixel" xOffset="120" yOffset="240"/>
    <component base="_part.pixeldbl" xOffset="60" yOffset="320"/>
    <component base="_part.pixeldbl" xOffset="160"/>
    <contour>
      <point x="220" y="10" type="move" name="ogonek"/>
    </contour>
    <contour>
      <point x="200" y="0" type="move" name="bottom"/>
    </contour>
    <contour>
      <point x="200" y="400" type="move" name="top"/>
    </contour>
  </outline>
</glyph>
<glyph name="OE" format="1">
  <advance width="400"/>
  <unicode hex="0152"/>
  <outline>
    <component base="_part.pixel" xOffset="30" yOffset="80"/>
    <component base="_part.pixel" yOffset="160"/>
    <component base="_part.pixel" xOffset="30" yOffset="400"/>
    <component base="_part.pixeldbl" xOffset="80"/>
    <component base="_part.pixeldbl" xOffset="80" yOffset="480"/>
    <component base="_part.pixel" yOffset="240"/>
    <component base="_part.pixel" yOffset="320"/>
    <component base="_part.pixeldbl" xOffset="160"/>
    <component base="_part.pixel" xOffset="160" yOffset="80"/>
    <component base="_part.pixel" xOffset="160" yOffset="160"/>
    <component base="_part.pixeldbl" xOffset="160" yOffset="240"/>
    <component base="_part.pixel" xOffset="160" yOffset="320"/>
    <component base="_part.pixel" xOffset="160" yOffset="400"/>
    <component base="_part.pixeldbl" xOffset="160" yOffset="480"/>
    <contour>
      <point x="200" y="560" type="move" name="top"/>
    </contour>
    <contour>
      <point x="200" y="0" type="move" name="bottom"/>
    </contour>
  </outline>
</glyph>
<glyph name="Ohorn" format="1">
  <advance width="400"/>
  <unicode hex="01A0"/>
  <outline>
    <component base="O"/>
    <component base="horncomb" xOffset="80" yOffset="160"/>
    <contour>
      <point x="200" y="560" type="move" name="top"/>
    </contour>
    <contour>
      <point x="200" y="0" type="move" name="bottom"/>
    </contour>
  </outline>
</glyph>
<glyph name="uhorn" format="1">
  <advance width="400"/>
  <unicode hex="01B0"/>
  <outline>
    <component base="u"/>
    <component base="horncomb" xOffset="120"/>
    <contour>
      <point x="200" y="400" type="move" name="top"/>
    </contour>
    <contour>
      <point x="200" y="0" type="move" name="bottom"/>
    </contour>
  </outline>
</glyph>
<glyph name="apostrophemod" format="1">
  <advance width="400"/>
  <unicode hex="02BC"/>
  <outline>
    <component base="_part.pixel" yOffset="560"/>
    <component base="_part.pixel" xOffset="40" yOffset="480"/>
    <contour>
      <point x="200" y="400" type="move" name="_top"/>
    </contour>
  </outline>
</glyph>
<glyph name="firsttonechinese" format="1">
  <advance width="400"/>
  <unicode hex="02C9"/>
  <outline>
    <component base="_part.pixeldbl" xOffset="40" yOffset="480"/>
    <component base="_part.pixel" xOffset="200" yOffset="480"/>
    <contour>
      <point x="200" y="560" type="move" name="top"/>
    </contour>
    <contour>
      <point x="200" y="400" type="move" name="_top"/>
    </contour>
  </outline>
</glyph>
<glyph name="circumflexcomb" format="1">
  <advance width="400"/>
  <unicode hex="0302"/>
  <outline>
    <component base="_part.pixeldbl" xOffset="100" yOffset="560"/>
    <component base="_part.pixel" xOffset="190" yOffset="480"/>
    <component base="_part.pixel" xOffset="50" yOffset="480"/>
    <contour>
      <point x="200" y="640" type="move" name="top"/>
    </contour>
    <contour>
      <point x="200" y="400" type="move" name="_top"/>
    </contour>
  </outline>
</glyph>
<glyph name="dblgravecomb" format="1">
  <advance width="400"/>
  <unicode hex="030F"/>
  <outline>
    <component base="_part.pixel" xOffset="70" yOffset="480"/>
    <component base="_part.pixel" xOffset="40" yOffset="560"/>
    <component base="_part.pixel" xOffset="190" yOffset="480"/>
    <component base="_part.pixel" xOffset="160" yOffset="560"/>
    <contour>
      <point x="200" y="640" type="move" name="top"/>
    </contour>
    <contour>
      <point x="200" y="400" type="move" name="_top"/>
    </contour>
  </outline>
</glyph>
<glyph name="breveinvertedcomb" format="1">
  <advance width="400"/>
  <unicode hex="0311"/>
  <outline>
    <component base="_part.pixeldbl" xOffset="80" yOffset="560"/>
    <component base="_part.pixel" xOffset="240" yOffset="480"/>
    <component base="_part.pixel" yOffset="480"/>
    <contour>
      <point x="200" y="640" type="move" name="top"/>
    </contour>
    <contour>
      <point x="200" y="400" type="move" name="_top"/>
    </contour>
  </outline>
</glyph>
<glyph name="commaturnedabovecomb" format="1">
  <advance width="400"/>
  <unicode hex="0312"/>
  <outline>
    <component base="_part.pixel" xOffset="120" yOffset="480"/>
    <component base="_part.pixel" xOffset="120" yOffset="560"/>
    <contour>
      <point x="200" y="640" type="move" name="top"/>
    </contour>
    <contour>
      <point x="200" y="400" type="move" name="_top"/>
    </contour>
  </outline>
</glyph>
<glyph name="dieresisbelowcomb" format="1">
  <advance width="400"/>
  <unicode hex="0324"/>
  <outline>
    <component base="_part.pixel" xOffset="40" yOffset="-160"/>
    <component base="_part.pixel" xOffset="200" yOffset="-160"/>
    <contour>
      <point x="200" y="0" type="move" name="_bottom"/>
    </contour>
    <contour>
      <point x="200" y="-160" type="move" name="bottom"/>
    </contour>
  </outline>
</glyph>
<glyph name="cedillacomb" format="1">
  <advance width="400"/>
  <unicode hex="0327"/>
  <outline>
    <component base="_part.pixel" xOffset="110" yOffset="-160"/>
    <component base="_part.pixel" xOffset="160" yOffset="-80"/>
    <contour>
      <point x="200" y="0" type="move" name="_bottom"/>
    </contour>
    <contour>
      <point x="200" y="-160" type="move" name="bottom"/>
    </contour>
  </outline>
</glyph>
<glyph name="ogonekcomb" format="1">
  <advance width="400"/>
  <unicode hex="0328"/>
  <outline>
    <component base="_part.pixel" xOffset="130" yOffset="-160"/>
    <component base="_part.pixel" xOffset="100" yOffset="-80"/>
    <contour>
      <point x="200" y="10" type="move" name="_ogonek"/>
    </contour>
  </outline>
</glyph>
<glyph name="caroncomb.alt" format="1">
  <advance width="400"/>
  <outline>
    <component base="_part.pixel" xOffset="160" yOffset="480"/>
    <component base="_part.pixel" xOffset="160" yOffset="400"/>
    <contour>
      <point x="200" y="560" type="move" name="_topright"/>
    </contour>
  </outline>
</glyph>
